<?xml version="1.0" encoding="utf-8"?>
<!-- Generator: Adobe Illustrator 16.0.4, SVG Export Plug-In . SVG Version: 6.00 Build 0)  -->
<!DOCTYPE svg PUBLIC "-//W3C//DTD SVG 1.1//EN" "http://www.w3.org/Graphics/SVG/1.1/DTD/svg11.dtd">
<svg version="1.1" id="Ebene_1" xmlns="http://www.w3.org/2000/svg" xmlns:xlink="http://www.w3.org/1999/xlink" x="0px" y="0px"
	 width="540px" height="61.396px" viewBox="0 0 540 61.396" enable-background="new 0 0 540 61.396" xml:space="preserve">
<rect stroke="#000000" stroke-miterlimit="10" width="540" height="61.396"/>
<g>
	<polygon fill="#CF1D39" points="35.633,41.957 4.901,41.957 4.901,6.321 11.11,6.321 11.11,35.748 35.633,35.748 	"/>
	<path fill="#CF1D39" d="M153.209,41.957h-9.183l-9.965-10.018h-13.409v-6.156h16.696c2.296,0,4.226-0.505,5.792-1.514
		c1.774-1.183,2.661-2.869,2.661-5.061c0-4.452-2.817-6.679-8.452-6.679h-20.349v29.427h-6.209V6.321h25.566
		c4.591,0,8.296,0.992,11.113,2.975c3.235,2.261,4.852,5.583,4.852,9.965c0,2.991-0.939,5.565-2.817,7.723
		c-1.739,2.018-4.104,3.426-7.096,4.226L153.209,41.957z"/>
	<rect x="39.976" y="16.95" fill="#CF1D39" width="4.357" height="25.007"/>
	<path fill="#CF1D39" d="M81.862,16.95L67.583,39.907c-1.001,1.636-1.904,2.453-2.709,2.453c-0.781,0-1.672-0.817-2.673-2.453
		L48.213,16.95h5.603l11.167,18.563L76.26,16.95H81.862z"/>
	<path fill="#CF1D39" d="M104.453,31.449h-14.28v-4.356h14.28V31.449L104.453,31.449z M105.587,41.957H83.985V16.95h21.602v4.357
		H88.342v16.293h17.245V41.957z"/>
	<path fill="#CF1D39" d="M190.099,41.957l-5.602-0.036l-4.21-6.993h-11.863l2.636-4.32h6.627l-4.357-7.213l-11.277,18.526h-5.602
		l13.583-22.591c0.342-0.586,0.818-1.123,1.428-1.61c0.732-0.562,1.392-0.843,1.978-0.843c0.634,0,1.293,0.269,1.977,0.806
		c0.586,0.464,1.062,1.013,1.428,1.647L190.099,41.957z"/>
	<path fill="#CF1D39" d="M217.157,39.797c0,1.611-0.549,2.417-1.648,2.417c-0.805,0-1.708-0.5-2.709-1.501l-16.037-16.11v17.354
		h-4.32V19.11c0-0.586,0.158-1.092,0.476-1.52c0.317-0.427,0.769-0.641,1.354-0.641c0.806,0,1.635,0.427,2.49,1.281l16.037,16.074
		V16.95h4.357V39.797z"/>
	<path fill="#CF1D39" d="M248.388,41.957h-6.408l-12.412-10.361c-0.854-0.732-1.281-1.403-1.281-2.014
		c0-0.586,0.427-1.245,1.281-1.978L241.98,16.95h6.408l-14.902,12.742L248.388,41.957L248.388,41.957z M227.482,41.957h-4.357V16.95
		h4.357V41.957z"/>
	<polygon fill="#FFFFFF" points="123.509,59.396 117.962,59.396 117.962,52.965 119.083,52.965 119.083,58.276 123.509,58.276 	"/>
	<rect x="124.526" y="52.965" fill="#FFFFFF" width="1.121" height="6.432"/>
	<path fill="#FFFFFF" d="M135.3,52.965l-3.673,5.904c-0.257,0.421-0.489,0.631-0.696,0.631c-0.201,0-0.43-0.21-0.688-0.631
		l-3.598-5.904h1.441l2.873,4.774l2.9-4.774H135.3z"/>
	<path fill="#FFFFFF" d="M141.11,56.694h-3.672v-1.121h3.672V56.694L141.11,56.694z M141.402,59.396h-5.556v-6.432h5.556v1.121
		h-4.435v4.19h4.435V59.396z"/>
	<path fill="#FFFFFF" d="M152.703,55.281c0,0.703-0.257,1.271-0.772,1.705c-0.477,0.401-1.077,0.603-1.798,0.603h-2.834v-1.111
		h3.013c0.37,0,0.681-0.109,0.933-0.33c0.251-0.22,0.376-0.512,0.376-0.875c0-0.364-0.125-0.653-0.376-0.867
		c-0.251-0.213-0.562-0.319-0.933-0.319h-3.673v5.311h-1.121v-6.432h4.615c0.722,0,1.321,0.204,1.798,0.612
		C152.445,54.004,152.703,54.572,152.703,55.281z"/>
	<path fill="#FFFFFF" d="M161.63,56.11c0,0.948-0.305,1.732-0.914,2.354c-0.609,0.621-1.384,0.932-2.326,0.932h-1.799
		c-0.935,0-1.709-0.311-2.321-0.932c-0.612-0.622-0.918-1.406-0.918-2.354c0-0.942,0.303-1.701,0.909-2.279
		c0.606-0.577,1.383-0.866,2.331-0.866h1.799c0.955,0,1.733,0.289,2.335,0.866C161.329,54.409,161.63,55.168,161.63,56.11
		L161.63,56.11z M160.519,56.204c0-0.621-0.199-1.13-0.598-1.525c-0.398-0.396-0.909-0.593-1.53-0.593h-1.799
		c-0.615,0-1.122,0.197-1.521,0.593c-0.399,0.396-0.598,0.904-0.598,1.525c0,0.615,0.199,1.114,0.598,1.498
		c0.398,0.383,0.906,0.574,1.521,0.574h1.799c0.622,0,1.132-0.191,1.53-0.574C160.32,57.318,160.519,56.819,160.519,56.204z"/>
	<path fill="#FFFFFF" d="M169.437,57.41c0,0.608-0.217,1.099-0.65,1.469c-0.414,0.346-0.932,0.518-1.554,0.518h-4.906v-1.12h4.906
		c0.308,0,0.574-0.069,0.8-0.207c0.257-0.17,0.386-0.399,0.386-0.688c0-0.289-0.132-0.512-0.396-0.669
		c-0.22-0.132-0.483-0.198-0.791-0.198h-3.032c-0.559,0-1.026-0.153-1.403-0.461c-0.402-0.333-0.603-0.772-0.603-1.318
		c0-0.54,0.201-0.977,0.603-1.31c0.377-0.308,0.844-0.461,1.403-0.461h4.85v1.121h-4.85c-0.213,0-0.396,0.059-0.546,0.179
		c-0.15,0.119-0.226,0.279-0.226,0.479c0,0.208,0.076,0.368,0.226,0.48c0.151,0.113,0.333,0.17,0.546,0.17h3.032
		c0.622,0,1.14,0.179,1.554,0.536C169.22,56.308,169.437,56.801,169.437,57.41z"/>
	<rect x="170.586" y="52.965" fill="#FFFFFF" width="1.121" height="6.432"/>
	<polygon fill="#FFFFFF" points="179.024,54.086 176.49,54.086 176.49,59.396 175.379,59.396 175.379,54.086 172.836,54.086 
		172.836,52.965 179.024,52.965 	"/>
	<rect x="179.739" y="52.965" fill="#FFFFFF" width="1.121" height="6.432"/>
	<path fill="#FFFFFF" d="M190.503,56.11c0,0.948-0.304,1.732-0.914,2.354c-0.609,0.621-1.384,0.932-2.326,0.932h-1.798
		c-0.936,0-1.709-0.311-2.321-0.932c-0.612-0.622-0.918-1.406-0.918-2.354c0-0.942,0.303-1.701,0.909-2.279
		c0.606-0.577,1.383-0.866,2.331-0.866h1.798c0.955,0,1.733,0.289,2.335,0.866C190.202,54.409,190.503,55.168,190.503,56.11
		L190.503,56.11z M189.392,56.204c0-0.621-0.199-1.13-0.598-1.525c-0.398-0.396-0.909-0.593-1.53-0.593h-1.798
		c-0.615,0-1.123,0.197-1.521,0.593c-0.399,0.396-0.598,0.904-0.598,1.525c0,0.615,0.199,1.114,0.598,1.498
		c0.398,0.383,0.906,0.574,1.521,0.574h1.798c0.622,0,1.132-0.191,1.53-0.574C189.193,57.318,189.392,56.819,189.392,56.204z"/>
	<path fill="#FFFFFF" d="M197.849,58.841c0,0.415-0.142,0.622-0.424,0.622c-0.208,0-0.44-0.129-0.697-0.387l-4.125-4.143v4.463
		h-1.111v-5.876c0-0.15,0.041-0.281,0.123-0.391c0.082-0.11,0.197-0.165,0.348-0.165c0.208,0,0.421,0.109,0.641,0.329l4.125,4.135
		v-4.464h1.121V58.841z"/>
	<path fill="#FFFFFF" d="M209.234,57.41c0,0.608-0.216,1.099-0.65,1.469c-0.414,0.346-0.932,0.518-1.553,0.518h-4.907v-1.12h4.907
		c0.307,0,0.574-0.069,0.8-0.207c0.258-0.17,0.387-0.399,0.387-0.688c0-0.289-0.132-0.512-0.396-0.669
		c-0.22-0.132-0.483-0.198-0.791-0.198h-3.033c-0.559,0-1.026-0.153-1.403-0.461c-0.401-0.333-0.603-0.772-0.603-1.318
		c0-0.54,0.201-0.977,0.603-1.31c0.377-0.308,0.845-0.461,1.403-0.461h4.85v1.121h-4.85c-0.213,0-0.396,0.059-0.546,0.179
		c-0.15,0.119-0.226,0.279-0.226,0.479c0,0.208,0.075,0.368,0.226,0.48c0.151,0.113,0.333,0.17,0.546,0.17h3.033
		c0.621,0,1.139,0.179,1.553,0.536C209.018,56.308,209.234,56.801,209.234,57.41z"/>
	<polygon fill="#FFFFFF" points="217.229,52.965 214.037,57.269 214.037,59.396 212.925,59.396 212.925,57.25 209.648,52.965 
		211.089,52.965 213.509,56.129 215.779,52.965 	"/>
	<path fill="#FFFFFF" d="M224.923,57.41c0,0.608-0.217,1.099-0.65,1.469c-0.415,0.346-0.932,0.518-1.554,0.518h-4.906v-1.12h4.906
		c0.308,0,0.574-0.069,0.8-0.207c0.257-0.17,0.386-0.399,0.386-0.688c0-0.289-0.132-0.512-0.396-0.669
		c-0.22-0.132-0.483-0.198-0.791-0.198h-3.033c-0.559,0-1.026-0.153-1.403-0.461c-0.402-0.333-0.603-0.772-0.603-1.318
		c0-0.54,0.201-0.977,0.603-1.31c0.376-0.308,0.844-0.461,1.403-0.461h4.85v1.121h-4.85c-0.213,0-0.395,0.059-0.546,0.179
		c-0.15,0.119-0.226,0.279-0.226,0.479c0,0.208,0.076,0.368,0.226,0.48c0.151,0.113,0.333,0.17,0.546,0.17h3.033
		c0.622,0,1.139,0.179,1.554,0.536C224.707,56.308,224.923,56.801,224.923,57.41z"/>
	<polygon fill="#FFFFFF" points="231.694,54.086 229.161,54.086 229.161,59.396 228.05,59.396 228.05,54.086 225.507,54.086 
		225.507,52.965 231.694,52.965 	"/>
	<path fill="#FFFFFF" d="M237.721,56.694h-3.672v-1.121h3.672V56.694L237.721,56.694z M238.013,59.396h-5.556v-6.432h5.556v1.121
		h-4.435v4.19h4.435V59.396z"/>
	<path fill="#FFFFFF" d="M248.862,59.406H247.6l-0.933-4.502l-2.156,4.153c-0.145,0.283-0.345,0.424-0.603,0.424
		c-0.289,0-0.508-0.145-0.659-0.433l-2.157-4.145l-0.922,4.502h-1.271l1.441-5.904c0.038-0.17,0.121-0.317,0.25-0.442
		c0.128-0.126,0.278-0.188,0.447-0.188c0.245,0,0.477,0.21,0.697,0.631l2.147,4.209l2.157-4.209c0.22-0.421,0.452-0.631,0.697-0.631
		c0.163,0,0.314,0.065,0.452,0.197c0.119,0.119,0.201,0.264,0.245,0.434L248.862,59.406z"/>
</g>
<g>
	<g>
		<rect x="432.392" y="26.695" fill-rule="evenodd" clip-rule="evenodd" fill="#FFFFFF" width="10.108" height="10.109"/>
		<rect x="463.219" y="26.695" fill-rule="evenodd" clip-rule="evenodd" fill="#FFFFFF" width="10.108" height="10.109"/>
		<rect x="493.546" y="26.695" fill-rule="evenodd" clip-rule="evenodd" fill="#FFFFFF" width="10.108" height="10.109"/>
		<rect x="523.873" y="26.695" fill-rule="evenodd" clip-rule="evenodd" fill="#FFFFFF" width="10.108" height="10.109"/>
		<path fill-rule="evenodd" clip-rule="evenodd" fill="#FFFFFF" d="M472.827,3.731h-39.936l-0.5,17.615l2.648,0.458
			c0.494-5.19,1.856-9.042,4.088-11.556c2.348-2.63,5.581-4.004,9.737-4.122v36.851c0,3.219-0.449,5.309-1.389,6.271
			c-0.798,0.823-2.148,1.327-4.051,1.516c-0.564,0.047-1.526,0.07-2.89,0.07v2.818h24.646v-2.818c-1.362,0-2.325-0.023-2.89-0.07
			c-1.901-0.188-3.252-0.692-4.051-1.516c-0.939-0.963-1.394-3.053-1.394-6.271V6.127c4.157,0.118,7.395,1.492,9.743,4.122
			c2.231,2.514,3.593,6.365,4.087,11.556l2.648-0.458L472.827,3.731z"/>
	</g>
	<path fill="#FFFFFF" d="M300.41,30.469c0,1.055-0.386,1.907-1.159,2.558c-0.716,0.603-1.616,0.904-2.699,0.904h-4.253v-1.667h4.521
		c0.556,0,1.022-0.165,1.399-0.495c0.376-0.329,0.565-0.768,0.565-1.314c0-0.546-0.188-0.979-0.565-1.3
		c-0.377-0.32-0.843-0.48-1.399-0.48h-5.511v7.97h-1.682v-9.651h6.924c1.083,0,1.983,0.307,2.699,0.919
		C300.023,28.552,300.41,29.404,300.41,30.469z"/>
	<path fill="#FFFFFF" d="M313.806,31.712c0,1.423-0.457,2.601-1.371,3.533c-0.914,0.933-2.077,1.398-3.49,1.398h-2.699
		c-1.404,0-2.565-0.466-3.484-1.398c-0.918-0.933-1.377-2.11-1.377-3.533c0-1.413,0.454-2.553,1.363-3.419
		c0.91-0.867,2.075-1.301,3.498-1.301h2.699c1.432,0,2.6,0.434,3.504,1.301C313.354,29.159,313.806,30.299,313.806,31.712
		L313.806,31.712z M312.138,31.854c0-0.933-0.299-1.695-0.897-2.289s-1.364-0.891-2.296-0.891h-2.699
		c-0.923,0-1.684,0.297-2.282,0.891c-0.599,0.594-0.897,1.356-0.897,2.289c0,0.923,0.299,1.672,0.897,2.247
		c0.598,0.574,1.359,0.862,2.282,0.862h2.699c0.933,0,1.698-0.288,2.296-0.862C311.839,33.525,312.138,32.776,312.138,31.854z"/>
	<path fill="#FFFFFF" d="M331.3,26.992l-4.975,8.86c-0.348,0.631-0.697,0.946-1.045,0.946s-0.697-0.315-1.046-0.946l-1.356-2.473
		l-1.385,2.473c-0.349,0.631-0.697,0.946-1.046,0.946s-0.697-0.315-1.045-0.946l-4.847-8.86h2.162l3.773,7.023l1.356-2.529
		l-2.458-4.494h2.162l3.773,7.023l3.815-7.023H331.3z"/>
	<path fill="#FFFFFF" d="M340.117,32.589h-5.511v-1.683h5.511V32.589L340.117,32.589z M340.556,36.644h-8.337v-9.651h8.337v1.682
		H333.9v6.289h6.655V36.644z"/>
	<path fill="#FFFFFF" d="M353.74,36.644h-2.487l-2.699-2.713h-3.632v-1.667h4.522c0.621,0,1.145-0.137,1.568-0.41
		c0.48-0.32,0.721-0.777,0.721-1.371c0-1.205-0.764-1.809-2.289-1.809h-5.512v7.97h-1.682v-9.651h6.925
		c1.243,0,2.247,0.269,3.01,0.806c0.876,0.612,1.314,1.512,1.314,2.699c0,0.81-0.255,1.507-0.764,2.092
		c-0.471,0.546-1.111,0.928-1.922,1.145L353.74,36.644z"/>
	<path fill="#FFFFFF" d="M363.193,32.589h-5.511v-1.683h5.511V32.589L363.193,32.589z M363.632,36.644h-8.338v-9.651h8.338v1.682
		h-6.656v6.289h6.656V36.644z"/>
	<path fill="#FFFFFF" d="M376.165,31.712c0,1.423-0.459,2.601-1.378,3.533c-0.918,0.933-2.079,1.398-3.482,1.398h-5.44v-9.651h5.44
		c1.423,0,2.588,0.434,3.497,1.301C375.711,29.159,376.165,30.299,376.165,31.712L376.165,31.712z M374.484,31.854
		c0-0.933-0.3-1.695-0.897-2.289c-0.599-0.594-1.359-0.891-2.282-0.891h-3.773v6.289h3.773c0.923,0,1.684-0.288,2.282-0.862
		C374.185,33.525,374.484,32.776,374.484,31.854z"/>
	<path fill="#FFFFFF" d="M397.334,33.832c0,0.414-0.104,0.806-0.312,1.173c-0.621,1.083-1.799,1.625-3.532,1.625h-6.924v-9.651
		h6.924c1.648,0,2.803,0.514,3.462,1.54c0.255,0.415,0.382,0.857,0.382,1.328c0,0.801-0.339,1.475-1.018,2.021
		C396.995,32.396,397.334,33.05,397.334,33.832L397.334,33.832z M395.709,29.833c0-0.405-0.236-0.716-0.707-0.933
		c-0.367-0.16-0.786-0.24-1.258-0.24h-5.496v6.288h5.496c0.462,0,0.872-0.07,1.229-0.212c0.49-0.207,0.735-0.504,0.735-0.891
		c0-0.396-0.245-0.697-0.735-0.904c-0.367-0.15-0.777-0.226-1.229-0.226h-4.507v-1.682h4.507c0.472,0,0.891-0.085,1.258-0.255
		C395.473,30.562,395.709,30.247,395.709,29.833z"/>
	<polygon fill="#FFFFFF" points="409.628,26.992 404.838,33.45 404.838,36.644 403.17,36.644 403.17,33.422 398.252,26.992 
		400.414,26.992 404.046,31.74 407.451,26.992 	"/>
</g>
</svg>
